<?xml version="1.0" encoding="UTF-8"?><svg id="Layer_2" xmlns="http://www.w3.org/2000/svg" viewBox="0 0 61.08 80.88"><defs><style>.cls-1{fill:#c66726;}</style></defs><g id="Layer_1-2"><g><polygon class="cls-1" points="16.04 14.05 7.13 4.1 4.12 7.09 14.13 15.95 16.04 14.05"/><polygon class="cls-1" points="19.19 13.05 16.47 0 12.37 1.1 16.58 13.74 19.19 13.05"/><polygon class="cls-1" points="26.63 1.1 22.52 0 19.8 13.05 22.42 13.74 26.63 1.1"/><path class="cls-1" d="M17,19.39c0,1.37,1.12,2.48,2.49,2.48s2.49-1.11,2.49-2.48-1.12-2.48-2.49-2.48-2.49,1.11-2.49,2.48Z"/><polygon class="cls-1" points="13.82 16.48 1.1 12.3 0 16.38 13.12 19.08 13.82 16.48"/><polygon class="cls-1" points="24.87 15.95 34.87 7.09 31.86 4.1 22.95 14.05 24.87 15.95"/><path class="cls-1" d="M50.68,13.6c-1.91,.16-3.49,1.08-4.48,2.43l-7.58,.44,.37-.08-1.1-4.09-12.72,4.19,.7,2.6,4.48-.92,15.14-.87c-.25,.65-.4,1.36-.4,2.1s.14,1.45,.4,2.1l-15.13-.87-4.49-.92-.7,2.6,12.72,4.19,1.1-4.09-.36-.07,7.57,.44c.99,1.35,2.57,2.27,4.48,2.43,4.01,.33,10.4,.67,10.4,.67V12.92s-6.4,.34-10.4,.67Z"/><polygon class="cls-1" points="22.95 24.73 31.86 34.68 34.87 31.69 24.87 22.83 22.95 24.73"/><polygon class="cls-1" points="14.13 22.83 4.12 31.69 7.13 34.68 16.04 24.73 14.13 22.83"/><path class="cls-1" d="M24.85,38.16l1.78-.47-4.21-12.65-2.61,.7,2.61,12.55h-5.84l2.61-12.55-2.61-.7-4.21,12.65,1.78,.47-6.42,41.37c-.09,.57,.3,1.1,.88,1.19,.05,0,.11,.01,.16,.01,.51,0,.95-.37,1.03-.88l1.86-12.01h15.67l1.89,12.16c.08,.51,.53,.88,1.03,.88,.05,0,.11,0,.16-.01,.57-.09,.96-.62,.88-1.19l-6.44-41.52Zm-1.86,1.69l1.63,10.49-8.27-10.49h6.64Zm-7.15,1.05l8.97,11.38H14.08l1.77-11.38Zm-3.94,25.38l1.82-11.75,12.91,11.75H11.9Zm2.63-12.43h10.63l1.75,11.27-12.38-11.27Z"/><polygon class="cls-1" points="13.12 19.7 0 22.4 1.1 26.48 13.82 22.29 13.12 19.7"/></g></g></svg>