<?xml version="1.0" encoding="UTF-8"?><svg id="Layer_2" xmlns="http://www.w3.org/2000/svg" viewBox="0 0 70.82 94.28"><defs><style>.cls-1{fill:#fff;}</style></defs><g id="Layer_1-2"><g><polygon class="cls-1" points="18.6 16.38 8.27 4.78 4.78 8.27 16.38 18.59 18.6 16.38"/><polygon class="cls-1" points="22.25 15.21 19.1 0 14.34 1.28 19.22 16.02 22.25 15.21"/><polygon class="cls-1" points="30.87 1.28 26.11 0 22.96 15.21 25.99 16.02 30.87 1.28"/><path class="cls-1" d="M19.71,22.6c0,1.6,1.3,2.89,2.89,2.89s2.89-1.29,2.89-2.89-1.29-2.89-2.89-2.89-2.89,1.3-2.89,2.89Z"/><polygon class="cls-1" points="16.02 19.22 1.28 14.34 0 19.1 15.21 22.24 16.02 19.22"/><polygon class="cls-1" points="28.83 18.6 40.43 8.27 36.94 4.78 26.61 16.38 28.83 18.6"/><path class="cls-1" d="M58.76,15.85c-2.21,.19-4.04,1.26-5.19,2.83l-8.79,.51,.43-.09-1.28-4.76-14.74,4.88,.81,3.03,5.19-1.07,17.55-1.02c-.29,.76-.46,1.58-.46,2.45s.17,1.69,.46,2.45l-17.54-1.02-5.2-1.08-.81,3.03,14.74,4.88,1.28-4.76-.42-.09,8.78,.51c1.15,1.57,2.98,2.65,5.19,2.83,4.65,.39,12.06,.78,12.06,.78V15.07s-7.42,.39-12.06,.78Z"/><polygon class="cls-1" points="26.61 28.83 36.94 40.43 40.43 36.94 28.83 26.61 26.61 28.83"/><polygon class="cls-1" points="16.38 26.61 4.78 36.94 8.27 40.43 18.59 28.83 16.38 26.61"/><path class="cls-1" d="M28.81,44.48l2.06-.55-4.88-14.74-3.03,.81,3.03,14.63h-6.77l3.02-14.63-3.03-.81-4.88,14.74,2.06,.55-7.44,48.22c-.1,.66,.35,1.28,1.02,1.39,.06,0,.12,.01,.19,.01,.59,0,1.11-.43,1.2-1.03l2.16-13.99H31.69l2.19,14.18c.09,.6,.61,1.03,1.2,1.03,.06,0,.12,0,.19-.01,.66-.1,1.12-.72,1.02-1.39l-7.47-48.4Zm-2.16,1.97l1.89,12.23-9.59-12.23h7.7Zm-8.29,1.22l10.4,13.27h-12.45l2.05-13.27Zm-4.56,29.59l2.11-13.7,14.96,13.7H13.8Zm3.04-14.49h12.32l2.03,13.13-14.35-13.13Z"/><polygon class="cls-1" points="15.21 22.96 0 26.11 1.28 30.87 16.02 25.99 15.21 22.96"/></g></g></svg>