<?xml version="1.0" encoding="UTF-8"?><svg id="Layer_2" xmlns="http://www.w3.org/2000/svg" viewBox="0 0 152 42.42"><defs><style>.cls-1{fill:#fff;}</style></defs><g id="Layer_1-2"><g><path class="cls-1" d="M16.7,2.61c3.29,9.95,7.09,19.82,11.19,29.56h-7.73c-1.15-3.72-2.39-7.43-3.72-11.11-3.29-.17-6.58-.17-9.87-.04-.21,1.54-.34,3.03-.34,4.57,0,1.97,.17,4.06,.56,6.58H0C4.06,22.43,7.86,12.56,11.15,2.61h5.55Zm-.73,17.17c-1.58-4.36-3.29-8.63-5.13-12.86-2.09,5.72-3.38,9.53-4.06,12.86,3.08,.13,6.11,.13,9.19,0Z"/><path class="cls-1" d="M29.05,37.34c0-1.92,1.41-3.29,3.84-3.67l.21,.04c.98,5.47,3.16,7.39,5.98,7.39,2.52,0,3.76-2.26,3.72-6.28l-.09-7.9-1.45,1.88c-1.79,2.26-3.46,3.42-5.94,3.42-4.14,0-7.13-3.72-7.13-9.36,0-8.33,5.38-12.52,11.92-12.52,2.95,0,5.77,.77,8.37,2.18-.43,10.04-.34,12.43-.34,16.79,0,7.48-4.49,13.12-11.96,13.12-4.53,0-7.13-2.31-7.13-5.08Zm9.78-9.01c2.22,0,3.89-1.79,3.89-5.81V13.97c-1.24-1.67-2.78-2.48-4.49-2.48-3.29,0-4.83,3.03-4.83,7.13,0,5.85,2.65,9.7,5.43,9.7Z"/><path class="cls-1" d="M57.84,21.1c0,4.02,.09,7.86,.21,11.07h-6.02c.47-7.13,.51-14.27,0-21.36h4.4l1.03,5.77c2.18-5.08,4.1-6.24,5.98-6.24,2.35,0,3.8,1.45,3.8,3.72s-1.41,3.93-3.03,4.57l-.21-.13c-.64-2.73-1.54-4.53-3.25-4.53-1.58,0-2.91,1.92-2.91,7.13Z"/><path class="cls-1" d="M68.78,3.38c0-1.97,1.45-3.38,3.46-3.38s3.29,1.37,3.29,3.2-1.45,3.33-3.46,3.33-3.29-1.32-3.29-3.16Zm.38,7.43h6.02c-.56,7.09-.47,14.23,0,21.36h-6.02c.47-7.13,.51-14.27,0-21.36Z"/><path class="cls-1" d="M97.19,25.85l.3,.3-1.37,1.84c-2.18,2.95-4.66,4.66-8.42,4.66-5.38,0-9.91-3.84-9.91-11.11,0-6.37,4.44-11.19,10.89-11.19,4.44,0,8.03,1.84,8.03,5.34,0,1.75-1.28,3.16-3.42,3.8l-.09-.04c-1.24-5.6-3.5-8.03-6.15-8.03-2.44,0-4.36,2.31-4.36,6.92,0,6.88,3.97,10.21,7.99,10.21,2.39,0,4.31-.77,6.49-2.69Z"/><path class="cls-1" d="M98.51,21.83c0-6.66,4.49-11.49,11.49-11.49,6.58,0,10.72,4.1,10.72,10.81s-4.49,11.49-11.49,11.49c-6.58,0-10.72-4.1-10.72-10.81Zm16.45,3.03c0-6.32-2.91-13.46-6.96-13.46-2.18,0-3.72,1.97-3.72,6.71,0,6.32,2.91,13.46,6.96,13.46,2.18,0,3.72-1.97,3.72-6.71Z"/><path class="cls-1" d="M129.4,.56c-.38,10.55-.43,21.06,0,31.61h-5.98c.43-10.55,.43-21.06,0-31.61h5.98Z"/><path class="cls-1" d="M151.7,25.93l.3,.3-1.32,1.84c-1.97,2.69-4.66,4.57-8.54,4.57-5.77,0-10.04-4.02-10.04-10.98,0-7.31,4.78-11.32,10.89-11.32,5.21,0,8.33,2.99,8.33,7.05,0,.47-.04,.94-.13,1.41h-13.88c.09,5.77,2.78,9.48,7.99,9.48,2.35,0,4.44-.77,6.41-2.35Zm-14.4-7.95c2.9,0,6.02-.13,8.76-.51-.51-4.27-2.18-6.15-4.53-6.15s-4.06,2.09-4.23,6.66Z"/></g></g></svg>